<?xml version="1.0" encoding="UTF-8"?>
<svg id="Layer_1" data-name="Layer 1" xmlns="http://www.w3.org/2000/svg" xmlns:xlink="http://www.w3.org/1999/xlink" viewBox="0 0 280.47 2007.24">
  <defs>
    <style>
      .cls-1 {
        opacity: .5;
      }

      .cls-2 {
        clip-path: url(#clippath-2);
      }

      .cls-3, .cls-4, .cls-5, .cls-6, .cls-7, .cls-8, .cls-9 {
        stroke-width: 0px;
      }

      .cls-10 {
        clip-path: url(#clippath-6);
      }

      .cls-4, .cls-11 {
        fill: none;
      }

      .cls-12 {
        clip-path: url(#clippath-7);
      }

      .cls-13 {
        clip-path: url(#clippath-1);
      }

      .cls-14 {
        clip-path: url(#clippath-4);
      }

      .cls-5 {
        fill: #333;
      }

      .cls-6 {
        fill: #fff;
      }

      .cls-7 {
        fill: url(#New_Pattern_Swatch_26);
      }

      .cls-15 {
        clip-path: url(#clippath);
      }

      .cls-11 {
        stroke: #f34f36;
        stroke-miterlimit: 10;
        stroke-width: 6px;
      }

      .cls-16 {
        clip-path: url(#clippath-3);
      }

      .cls-17 {
        clip-path: url(#clippath-8);
      }

      .cls-8 {
        fill: #ff6553;
      }

      .cls-18 {
        clip-path: url(#clippath-5);
      }

      .cls-9 {
        fill: #1d1d1b;
      }
    </style>
    <clipPath id="clippath">
      <rect class="cls-4" x="100.57" y="-111.24" width="116.58" height="116.58"/>
    </clipPath>
    <clipPath id="clippath-1">
      <rect class="cls-4" x="-5.34" y="-111.24" width="116.58" height="116.58"/>
    </clipPath>
    <clipPath id="clippath-2">
      <rect class="cls-4" x="-111.24" y="-111.24" width="116.58" height="116.58"/>
    </clipPath>
    <clipPath id="clippath-3">
      <rect class="cls-4" x="100.57" y="-5.34" width="116.58" height="116.58"/>
    </clipPath>
    <clipPath id="clippath-4">
      <rect class="cls-4" x="-5.34" y="-5.34" width="116.58" height="116.58"/>
    </clipPath>
    <clipPath id="clippath-5">
      <rect class="cls-4" x="-111.24" y="-5.34" width="116.58" height="116.58"/>
    </clipPath>
    <clipPath id="clippath-6">
      <rect class="cls-4" x="100.57" y="100.57" width="116.58" height="116.58"/>
    </clipPath>
    <clipPath id="clippath-7">
      <rect class="cls-4" x="-5.34" y="100.57" width="116.58" height="116.58"/>
    </clipPath>
    <clipPath id="clippath-8">
      <rect class="cls-4" x="-111.24" y="100.57" width="116.58" height="116.58"/>
    </clipPath>
    <pattern id="New_Pattern_Swatch_26" data-name="New Pattern Swatch 26" x="0" y="0" width="105.91" height="105.91" patternTransform="translate(90.68 2277.3) scale(.74 1)" patternUnits="userSpaceOnUse" viewBox="0 0 105.91 105.91">
      <g>
        <rect class="cls-4" width="105.91" height="105.91"/>
        <g class="cls-15">
          <line class="cls-11" x1="333.73" y1="5.34" x2="100.57" y2="-227.82"/>
          <line class="cls-11" x1="323.13" y1="15.93" x2="89.97" y2="-217.22"/>
          <line class="cls-11" x1="312.53" y1="26.53" x2="79.38" y2="-206.63"/>
          <line class="cls-11" x1="301.93" y1="37.13" x2="68.78" y2="-196.03"/>
          <line class="cls-11" x1="291.34" y1="47.73" x2="58.18" y2="-185.43"/>
          <line class="cls-11" x1="280.74" y1="58.33" x2="47.58" y2="-174.83"/>
          <line class="cls-11" x1="270.14" y1="68.92" x2="36.98" y2="-164.23"/>
          <line class="cls-11" x1="259.54" y1="79.52" x2="26.39" y2="-153.64"/>
          <line class="cls-11" x1="248.94" y1="90.12" x2="15.79" y2="-143.04"/>
          <line class="cls-11" x1="238.35" y1="100.72" x2="5.19" y2="-132.44"/>
          <line class="cls-11" x1="227.75" y1="111.32" x2="-5.41" y2="-121.84"/>
          <line class="cls-11" x1="217.15" y1="121.91" x2="-16.01" y2="-111.24"/>
        </g>
        <g class="cls-13">
          <line class="cls-11" x1="227.82" y1="5.34" x2="-5.34" y2="-227.82"/>
          <line class="cls-11" x1="217.22" y1="15.93" x2="-15.93" y2="-217.22"/>
          <line class="cls-11" x1="206.63" y1="26.53" x2="-26.53" y2="-206.63"/>
          <line class="cls-11" x1="196.03" y1="37.13" x2="-37.13" y2="-196.03"/>
          <line class="cls-11" x1="185.43" y1="47.73" x2="-47.73" y2="-185.43"/>
          <line class="cls-11" x1="174.83" y1="58.33" x2="-58.33" y2="-174.83"/>
          <line class="cls-11" x1="164.23" y1="68.92" x2="-68.92" y2="-164.23"/>
          <line class="cls-11" x1="153.64" y1="79.52" x2="-79.52" y2="-153.64"/>
          <line class="cls-11" x1="143.04" y1="90.12" x2="-90.12" y2="-143.04"/>
          <line class="cls-11" x1="132.44" y1="100.72" x2="-100.72" y2="-132.44"/>
          <line class="cls-11" x1="121.84" y1="111.32" x2="-111.32" y2="-121.84"/>
          <line class="cls-11" x1="111.24" y1="121.91" x2="-121.91" y2="-111.24"/>
        </g>
        <g class="cls-2">
          <line class="cls-11" x1="121.91" y1="5.34" x2="-111.24" y2="-227.82"/>
          <line class="cls-11" x1="111.32" y1="15.93" x2="-121.84" y2="-217.22"/>
          <line class="cls-11" x1="100.72" y1="26.53" x2="-132.44" y2="-206.63"/>
          <line class="cls-11" x1="90.12" y1="37.13" x2="-143.04" y2="-196.03"/>
          <line class="cls-11" x1="79.52" y1="47.73" x2="-153.64" y2="-185.43"/>
          <line class="cls-11" x1="68.92" y1="58.33" x2="-164.23" y2="-174.83"/>
          <line class="cls-11" x1="58.33" y1="68.92" x2="-174.83" y2="-164.23"/>
          <line class="cls-11" x1="47.73" y1="79.52" x2="-185.43" y2="-153.64"/>
          <line class="cls-11" x1="37.13" y1="90.12" x2="-196.03" y2="-143.04"/>
          <line class="cls-11" x1="26.53" y1="100.72" x2="-206.63" y2="-132.44"/>
          <line class="cls-11" x1="15.93" y1="111.32" x2="-217.22" y2="-121.84"/>
          <line class="cls-11" x1="5.34" y1="121.91" x2="-227.82" y2="-111.24"/>
        </g>
        <g class="cls-16">
          <line class="cls-11" x1="333.73" y1="111.24" x2="100.57" y2="-121.91"/>
          <line class="cls-11" x1="323.13" y1="121.84" x2="89.97" y2="-111.32"/>
          <line class="cls-11" x1="312.53" y1="132.44" x2="79.38" y2="-100.72"/>
          <line class="cls-11" x1="301.93" y1="143.04" x2="68.78" y2="-90.12"/>
          <line class="cls-11" x1="291.34" y1="153.64" x2="58.18" y2="-79.52"/>
          <line class="cls-11" x1="280.74" y1="164.23" x2="47.58" y2="-68.92"/>
          <line class="cls-11" x1="270.14" y1="174.83" x2="36.98" y2="-58.33"/>
          <line class="cls-11" x1="259.54" y1="185.43" x2="26.39" y2="-47.73"/>
          <line class="cls-11" x1="248.94" y1="196.03" x2="15.79" y2="-37.13"/>
          <line class="cls-11" x1="238.35" y1="206.63" x2="5.19" y2="-26.53"/>
          <line class="cls-11" x1="227.75" y1="217.22" x2="-5.41" y2="-15.93"/>
          <line class="cls-11" x1="217.15" y1="227.82" x2="-16.01" y2="-5.34"/>
        </g>
        <g class="cls-14">
          <line class="cls-11" x1="227.82" y1="111.24" x2="-5.34" y2="-121.91"/>
          <line class="cls-11" x1="217.22" y1="121.84" x2="-15.93" y2="-111.32"/>
          <line class="cls-11" x1="206.63" y1="132.44" x2="-26.53" y2="-100.72"/>
          <line class="cls-11" x1="196.03" y1="143.04" x2="-37.13" y2="-90.12"/>
          <line class="cls-11" x1="185.43" y1="153.64" x2="-47.73" y2="-79.52"/>
          <line class="cls-11" x1="174.83" y1="164.23" x2="-58.33" y2="-68.92"/>
          <line class="cls-11" x1="164.23" y1="174.83" x2="-68.92" y2="-58.33"/>
          <line class="cls-11" x1="153.64" y1="185.43" x2="-79.52" y2="-47.73"/>
          <line class="cls-11" x1="143.04" y1="196.03" x2="-90.12" y2="-37.13"/>
          <line class="cls-11" x1="132.44" y1="206.63" x2="-100.72" y2="-26.53"/>
          <line class="cls-11" x1="121.84" y1="217.22" x2="-111.32" y2="-15.93"/>
          <line class="cls-11" x1="111.24" y1="227.82" x2="-121.91" y2="-5.34"/>
        </g>
        <g class="cls-18">
          <line class="cls-11" x1="121.91" y1="111.24" x2="-111.24" y2="-121.91"/>
          <line class="cls-11" x1="111.32" y1="121.84" x2="-121.84" y2="-111.32"/>
          <line class="cls-11" x1="100.72" y1="132.44" x2="-132.44" y2="-100.72"/>
          <line class="cls-11" x1="90.12" y1="143.04" x2="-143.04" y2="-90.12"/>
          <line class="cls-11" x1="79.52" y1="153.64" x2="-153.64" y2="-79.52"/>
          <line class="cls-11" x1="68.92" y1="164.23" x2="-164.23" y2="-68.92"/>
          <line class="cls-11" x1="58.33" y1="174.83" x2="-174.83" y2="-58.33"/>
          <line class="cls-11" x1="47.73" y1="185.43" x2="-185.43" y2="-47.73"/>
          <line class="cls-11" x1="37.13" y1="196.03" x2="-196.03" y2="-37.13"/>
          <line class="cls-11" x1="26.53" y1="206.63" x2="-206.63" y2="-26.53"/>
          <line class="cls-11" x1="15.93" y1="217.22" x2="-217.22" y2="-15.93"/>
          <line class="cls-11" x1="5.34" y1="227.82" x2="-227.82" y2="-5.34"/>
        </g>
        <g class="cls-10">
          <line class="cls-11" x1="333.73" y1="217.15" x2="100.57" y2="-16.01"/>
          <line class="cls-11" x1="323.13" y1="227.75" x2="89.97" y2="-5.41"/>
          <line class="cls-11" x1="312.53" y1="238.35" x2="79.38" y2="5.19"/>
          <line class="cls-11" x1="301.93" y1="248.94" x2="68.78" y2="15.79"/>
          <line class="cls-11" x1="291.34" y1="259.54" x2="58.18" y2="26.39"/>
          <line class="cls-11" x1="280.74" y1="270.14" x2="47.58" y2="36.98"/>
          <line class="cls-11" x1="270.14" y1="280.74" x2="36.98" y2="47.58"/>
          <line class="cls-11" x1="259.54" y1="291.34" x2="26.39" y2="58.18"/>
          <line class="cls-11" x1="248.94" y1="301.93" x2="15.79" y2="68.78"/>
          <line class="cls-11" x1="238.35" y1="312.53" x2="5.19" y2="79.38"/>
          <line class="cls-11" x1="227.75" y1="323.13" x2="-5.41" y2="89.97"/>
          <line class="cls-11" x1="217.15" y1="333.73" x2="-16.01" y2="100.57"/>
        </g>
        <g class="cls-12">
          <line class="cls-11" x1="227.82" y1="217.15" x2="-5.34" y2="-16.01"/>
          <line class="cls-11" x1="217.22" y1="227.75" x2="-15.93" y2="-5.41"/>
          <line class="cls-11" x1="206.63" y1="238.35" x2="-26.53" y2="5.19"/>
          <line class="cls-11" x1="196.03" y1="248.94" x2="-37.13" y2="15.79"/>
          <line class="cls-11" x1="185.43" y1="259.54" x2="-47.73" y2="26.39"/>
          <line class="cls-11" x1="174.83" y1="270.14" x2="-58.33" y2="36.98"/>
          <line class="cls-11" x1="164.23" y1="280.74" x2="-68.92" y2="47.58"/>
          <line class="cls-11" x1="153.64" y1="291.34" x2="-79.52" y2="58.18"/>
          <line class="cls-11" x1="143.04" y1="301.93" x2="-90.12" y2="68.78"/>
          <line class="cls-11" x1="132.44" y1="312.53" x2="-100.72" y2="79.38"/>
          <line class="cls-11" x1="121.84" y1="323.13" x2="-111.32" y2="89.97"/>
          <line class="cls-11" x1="111.24" y1="333.73" x2="-121.91" y2="100.57"/>
        </g>
        <g class="cls-17">
          <line class="cls-11" x1="121.91" y1="217.15" x2="-111.24" y2="-16.01"/>
          <line class="cls-11" x1="111.32" y1="227.75" x2="-121.84" y2="-5.41"/>
          <line class="cls-11" x1="100.72" y1="238.35" x2="-132.44" y2="5.19"/>
          <line class="cls-11" x1="90.12" y1="248.94" x2="-143.04" y2="15.79"/>
          <line class="cls-11" x1="79.52" y1="259.54" x2="-153.64" y2="26.39"/>
          <line class="cls-11" x1="68.92" y1="270.14" x2="-164.23" y2="36.98"/>
          <line class="cls-11" x1="58.33" y1="280.74" x2="-174.83" y2="47.58"/>
          <line class="cls-11" x1="47.73" y1="291.34" x2="-185.43" y2="58.18"/>
          <line class="cls-11" x1="37.13" y1="301.93" x2="-196.03" y2="68.78"/>
          <line class="cls-11" x1="26.53" y1="312.53" x2="-206.63" y2="79.38"/>
          <line class="cls-11" x1="15.93" y1="323.13" x2="-217.22" y2="89.97"/>
          <line class="cls-11" x1="5.34" y1="333.73" x2="-227.82" y2="100.57"/>
        </g>
      </g>
    </pattern>
  </defs>
  <g>
    <g>
      <polygon class="cls-6" points="121.51 829.42 104.32 829.42 104.32 626.64 75.23 585.31 75.23 298.83 159 179.82 173 189.93 92.42 304.4 92.42 579.74 121.51 621.07 121.51 829.42"/>
      <polygon class="cls-6" points="247.32 897.42 230.13 897.42 230.13 466.56 158.91 365.37 158.91 0 176.1 0 176.1 359.81 247.32 460.99 247.32 897.42"/>
      <polygon class="cls-6" points="218.93 1976.59 138.31 1975.95 111.44 1933.01 176.51 1840.56 176.51 812.27 280 812.27 280 1880.23 218.93 1976.59"/>
      <rect class="cls-6" x="82.35" y="812.27" width="62.32" height="1163.68"/>
      <polygon class="cls-6" points="88.13 1436.38 0 1311.17 0 1017.18 87.36 893.07 138.11 929.69 62.32 1037.37 62.32 1290.99 138.88 1399.76 88.13 1436.38"/>
      <polygon class="cls-6" points="117.27 1969.95 134.19 1990 156.33 1990 175.29 1968.93 117.27 1969.95"/>
    </g>
    <g class="cls-1">
      <path class="cls-8" d="m214.17,846.21c-2.97,0-5.38,2.41-5.38,5.38s2.41,5.38,5.38,5.38,5.38-2.41,5.38-5.38-2.41-5.38-5.38-5.38Z"/>
      <path class="cls-9" d="m214.17,824.26c-15.09,0-27.33,12.24-27.33,27.33s12.24,27.33,27.33,27.33,27.33-12.24,27.33-27.33-12.24-27.33-27.33-27.33Zm15.66,42.99c-.65.65-1.33,1.25-2.05,1.81l-2.91-3.86,2.85-3.76-5.87-4.47c-2.12,2.88-6.18,4.07-6.18,4.07l1.82,7.14,4.58-1.16,2.41,4.16c-3.14,1.66-6.67,2.54-10.32,2.54-2.87,0-5.66-.54-8.25-1.58l1.72-4.37,4.7.46.74-7.34c-3.56-.3-6.7-3.14-6.7-3.14l-5.14,5.29,3.38,3.3-2.17,4.02c-1.41-.88-2.73-1.93-3.94-3.14-3.42-3.42-5.59-7.77-6.26-12.48l4.95-.67,1.89,4.33,6.76-2.94c-1.48-3.25-.54-7.38-.54-7.38l-7.13-1.89-1.22,4.56-4.92.07c.19-5.63,2.47-10.9,6.47-14.9.81-.81,1.68-1.56,2.59-2.23l2.71,3.86-2.98,3.67,5.72,4.66c2.21-2.81,6.31-3.87,6.31-3.87l-1.59-7.2-4.61,1.01-2.22-4.14c2.99-1.46,6.3-2.24,9.72-2.24,3.1,0,6.1.63,8.86,1.84l-1.72,4.04-4.69-.6-.95,7.31c3.55.4,6.61,3.33,6.61,3.33l5.28-5.14-3.29-3.39,2.13-3.69c1.21.81,2.35,1.74,3.41,2.79,3.48,3.48,5.66,7.92,6.29,12.73l-4.86.49-1.74-4.39-6.86,2.7c1.37,3.3.28,7.4.28,7.4l7.05,2.15,1.39-4.52,4.91.1c-.24,5.54-2.52,10.71-6.46,14.66Z"/>
    </g>
    <rect class="cls-7" x="255.19" y="812.33" width="25.28" height="1066.51"/>
  </g>
  <g>
    <path class="cls-3" d="m216.66,1978.67l29.06,23.56H52.75l31.1-23.56h21.98s10.36,10.61,10.36,10.61l1.47,1.51h39.7l1.47-1.51,10.36-10.62h47.47m1.77-5h-51.35s-11.83,12.12-11.83,12.12h-35.48l-11.83-12.12h-25.77s-44.3,33.56-44.3,33.56h221.96l-41.4-33.56h0Z"/>
    <polygon class="cls-5" points="99.3 1973.67 123.26 1973.67 135.12 1985.83 160.18 1985.83 181.46 2007.23 130.28 2007.24 99.3 1973.67"/>
  </g>
</svg>